<?xml version="1.0" encoding="UTF-8" standalone="no"?>
<svg viewbox="0 0 48 48" width="40" height="40" xmlns="http://www.w3.org/2000/svg">
  <path d="m 32,20 c -1.2,0 -2,0.8 -2,2 v 12 c 0,1.2 -0.8,2 -2,2 H 6 C 4.8,36 4,35.2 4,34 V 12 C 4,10.8 4.8,10 6,10 H 18 C 19.2,10 20,9.2 20,8 20,6.8 19.2,6 18,6 H 6 C 2.6,6 0,8.6 0,12 v 22 c 0,3.4 2.6,6 6,6 h 22 c 3.4,0 6,-2.6 6,-6 V 22 c 0,-1.2 -0.8,-2 -2,-2 z" style="fill:white" />
  <path d="M 39.8,1.2 C 39.6,0.8 39.2,0.4 38.8,0.2 38.6,0 38.2,0 38,0 H 26 c -1.2,0 -2,0.8 -2,2 0,1.2 0.8,2 2,2 h 7.2 L 14.6,22.6 c -0.8,0.8 -0.8,2 0,2.8 0.4,0.4 0.8,0.6 1.4,0.6 0.6,0 1,-0.2 1.4,-0.6 L 36,6.8 V 14 c 0,1.2 0.8,2 2,2 1.2,0 2,-0.8 2,-2 V 2 C 40,1.8 40,1.4 39.8,1.2 Z" style="fill:white" />
</svg>
