<?xml version="1.0" encoding="UTF-8" standalone="no"?>
<!-- Created with Inkscape (http://www.inkscape.org/) -->

<svg
   width="44.546116mm"
   height="144.00002mm"
   viewBox="0 0 44.546116 144.00001"
   version="1.1"
   id="svg1"
   sodipodi:docname="parallel-red-above.svg"
   inkscape:version="1.3.2 (091e20ef0f, 2023-11-25, custom)"
   xmlns:inkscape="http://www.inkscape.org/namespaces/inkscape"
   xmlns:sodipodi="http://sodipodi.sourceforge.net/DTD/sodipodi-0.dtd"
   xmlns:xlink="http://www.w3.org/1999/xlink"
   xmlns="http://www.w3.org/2000/svg"
   xmlns:svg="http://www.w3.org/2000/svg">
  <sodipodi:namedview
     id="namedview1"
     pagecolor="#ffffff"
     bordercolor="#000000"
     borderopacity="0.25"
     inkscape:showpageshadow="2"
     inkscape:pageopacity="0.0"
     inkscape:pagecheckerboard="0"
     inkscape:deskcolor="#d1d1d1"
     inkscape:document-units="mm"
     inkscape:zoom="3.3286345"
     inkscape:cx="145.10455"
     inkscape:cy="207.44242"
     inkscape:window-width="3840"
     inkscape:window-height="2121"
     inkscape:window-x="0"
     inkscape:window-y="0"
     inkscape:window-maximized="1"
     inkscape:current-layer="layer1" />
  <defs
     id="defs1" />
  <g
     inkscape:label="Layer 1"
     inkscape:groupmode="layer"
     id="layer1"
     transform="translate(-69.44668,-39.719773)">
    <path
       id="use11"
       style="color:#000000;fill:#0000ff;stroke-linejoin:round;-inkscape-stroke:none"
       d="m 91.719745,150.00761 c -0.0936,-0.001 -0.18617,-0.007 -0.28008,-0.007 -12.032447,0 -21.8414,9.7223 -21.99297,21.7196 h 4.00027 c 0.14986,-9.83397 8.12207,-17.71933 17.9927,-17.71933 0.094,0 0.18646,0.006 0.28008,0.007 z" />
    <rect
       style="fill:#c95900;fill-opacity:1;stroke:#c95900;stroke-width:4;stroke-linejoin:round;stroke-dasharray:none;stroke-opacity:1"
       id="rect1"
       width="20"
       height="20"
       x="-181.71979"
       y="81.719673"
       transform="rotate(-90)" />
    <use
       x="0"
       y="0"
       xlink:href="#use12"
       id="use13"
       transform="matrix(1,0,0,-1,2e-6,264.5911)" />
    <use
       x="0"
       y="0"
       xlink:href="#rect1"
       id="use1"
       transform="translate(-5e-6,-40.000005)" />
    <use
       x="0"
       y="0"
       xlink:href="#use1"
       id="use2"
       transform="translate(-5e-6,-40.000005)" />
    <use
       x="0"
       y="0"
       xlink:href="#use2"
       id="use3"
       transform="translate(-5e-6,-40.000005)" />
    <use
       x="0"
       y="0"
       xlink:href="#use7"
       id="use8"
       transform="rotate(180,91.583214,152.00778)" />
    <use
       x="0"
       y="0"
       xlink:href="#use9"
       id="use10"
       transform="rotate(180,91.579705,112.5797)" />
    <use
       x="0"
       y="0"
       xlink:href="#use11"
       id="use12"
       transform="rotate(180,91.719745,152.00778)" />
    <path
       id="use7"
       style="color:#000000;fill:#ff0000;stroke-linejoin:round;-inkscape-stroke:none"
       d="m 91.446695,150.00764 c 0.0936,-0.001 0.18617,-0.007 0.28008,-0.007 12.032445,0 21.841395,9.7223 21.992965,21.71961 h -4.00027 c -0.14985,-9.83398 -8.12207,-17.71933 -17.992695,-17.71933 -0.094,0 -0.18646,0.006 -0.28008,0.007 z" />
    <use
       x="0"
       y="0"
       xlink:href="#use13"
       id="use14"
       transform="rotate(180,91.719744,112.58332)" />
    <use
       x="0"
       y="0"
       xlink:href="#use8"
       id="use9"
       transform="matrix(1,0,0,-1,0,264.5911)" />
    <use
       x="0"
       y="0"
       xlink:href="#use14"
       id="use15"
       transform="matrix(1,0,0,-1,0,185.74219)" />
    <use
       x="0"
       y="0"
       xlink:href="#use15"
       id="use18"
       transform="rotate(180,91.583215,73.158855)" />
    <use
       x="0"
       y="0"
       xlink:href="#use10"
       id="use16"
       transform="matrix(1,0,0,-1,0.007028,185.73495)" />
    <use
       x="0"
       y="0"
       xlink:href="#use16"
       id="use17"
       transform="rotate(180,91.583215,73.158855)" />
  </g>
</svg>
