<?xml version="1.0" encoding="UTF-8" standalone="no"?>
<!-- Created with Inkscape (http://www.inkscape.org/) -->

<svg
   width="100mm"
   height="29.762026mm"
   viewBox="0 0 100 29.762026"
   version="1.1"
   id="svg1"
   inkscape:version="1.3.2 (091e20ef0f, 2023-11-25, custom)"
   sodipodi:docname="s-thread-horizontal.svg"
   xmlns:inkscape="http://www.inkscape.org/namespaces/inkscape"
   xmlns:sodipodi="http://sodipodi.sourceforge.net/DTD/sodipodi-0.dtd"
   xmlns="http://www.w3.org/2000/svg"
   xmlns:svg="http://www.w3.org/2000/svg">
  <sodipodi:namedview
     id="namedview1"
     pagecolor="#ffffff"
     bordercolor="#000000"
     borderopacity="0.25"
     inkscape:showpageshadow="2"
     inkscape:pageopacity="0.0"
     inkscape:pagecheckerboard="0"
     inkscape:deskcolor="#d1d1d1"
     inkscape:document-units="mm"
     inkscape:zoom="1.6168981"
     inkscape:cx="189.56049"
     inkscape:cy="116.58125"
     inkscape:window-width="3840"
     inkscape:window-height="2121"
     inkscape:window-x="0"
     inkscape:window-y="0"
     inkscape:window-maximized="1"
     inkscape:current-layer="layer1"
     showgrid="false" />
  <defs
     id="defs1" />
  <g
     inkscape:label="Layer 1"
     inkscape:groupmode="layer"
     id="layer1"
     transform="translate(-55.103928,-117.66898)">
    <g
       stroke="#d89999"
       id="g16"
       style="fill:none;stroke:#000000;stroke-width:8;stroke-opacity:1"
       transform="matrix(0,0.26458333,-0.26458333,0,171.16549,106.36215)">
      <path
         d="m 60.44,6 c -18.37,24.13 -17.97,63.98 -0.6228,81.33 10.81,10.81 61.35,60.93 79.12,79.12 17.77,18.19 14.39,65.58 1.692,82.08"
         id="path9"
         style="stroke:#000000;stroke-opacity:1" />
      <path
         d="m 60.44,88 c -18.37,24.13 -17.97,63.98 -0.6228,81.33 10.81,10.81 61.35,60.93 79.12,79.12 17.77,18.19 14.39,65.58 1.692,82.08"
         id="path10"
         style="stroke:#000000;stroke-opacity:1" />
      <path
         d="m 60.44,170 c -18.37,24.13 -17.97,63.98 -0.6228,81.33 10.81,10.81 61.35,60.93 79.12,79.12 17.77,18.19 14.39,65.58 1.692,82.08"
         id="path11"
         style="stroke:#000000;stroke-opacity:1" />
      <path
         d="m 60.44,251 c -18.37,24.13 -17.97,63.98 -0.6228,81.33 10.81,10.81 61.35,60.93 79.12,79.12 17.77,18.19 14.39,65.58 1.692,82.08"
         id="path12"
         style="stroke:#000000;stroke-opacity:1" />
      <path
         d="m 60.44,333 c -18.37,24.13 -17.97,63.98 -0.6228,81.33 10.81,10.81 61.35,60.93 79.12,79.12"
         id="path13"
         style="stroke:#000000;stroke-opacity:1" />
      <path
         d="m 60.44,415 c -18.37,24.13 -17.97,63.98 -0.6228,81.33"
         id="path14"
         style="stroke:#000000;stroke-opacity:1" />
      <path
         d="m 59.82,5 c 10.81,10.81 61.35,60.93 79.12,79.12 17.77,18.19 14.39,65.58 1.692,82.08"
         id="path15"
         style="stroke:#000000;stroke-opacity:1" />
      <path
         d="m 138.9,3 c 17.77,18.19 14.39,65.58 1.692,82.08"
         id="path16"
         style="stroke:#000000;stroke-opacity:1" />
    </g>
  </g>
</svg>
