<?xml version="1.0" encoding="UTF-8" standalone="no"?>
<!-- Created with Inkscape (http://www.inkscape.org/) -->

<svg
   width="29.767319mm"
   height="100mm"
   viewBox="0 0 29.767319 100"
   version="1.1"
   id="svg1"
   inkscape:version="1.3.2 (091e20ef0f, 2023-11-25, custom)"
   sodipodi:docname="z-twisted-yarn.svg"
   xmlns:inkscape="http://www.inkscape.org/namespaces/inkscape"
   xmlns:sodipodi="http://sodipodi.sourceforge.net/DTD/sodipodi-0.dtd"
   xmlns="http://www.w3.org/2000/svg"
   xmlns:svg="http://www.w3.org/2000/svg">
  <sodipodi:namedview
     id="namedview1"
     pagecolor="#ffffff"
     bordercolor="#000000"
     borderopacity="0.25"
     inkscape:showpageshadow="2"
     inkscape:pageopacity="0.0"
     inkscape:pagecheckerboard="0"
     inkscape:deskcolor="#d1d1d1"
     inkscape:document-units="mm"
     inkscape:zoom="1.6168981"
     inkscape:cx="56.280603"
     inkscape:cy="249.5519"
     inkscape:window-width="3840"
     inkscape:window-height="2121"
     inkscape:window-x="0"
     inkscape:window-y="0"
     inkscape:window-maximized="1"
     inkscape:current-layer="layer1" />
  <defs
     id="defs1" />
  <g
     inkscape:label="Layer 1"
     inkscape:groupmode="layer"
     id="layer1"
     transform="translate(-90.222916,-82.55)">
    <g
       stroke="#0a9999"
       id="g8"
       style="fill:none;stroke:#000000;stroke-width:8;stroke-opacity:1"
       transform="matrix(0.26458333,0,0,0.26458333,25.45316,66.488438)">
      <path
         d="m 339.6,6 c 18.37,24.13 17.97,63.98 0.6228,81.33 -10.81,10.81 -61.35,60.93 -79.12,79.12 -17.77,18.19 -14.39,65.58 -1.692,82.08"
         id="path1"
         style="stroke:#000000;stroke-opacity:1" />
      <path
         d="m 339.6,88 c 18.37,24.13 17.97,63.98 0.6228,81.33 -10.81,10.81 -61.35,60.93 -79.12,79.12 -17.77,18.19 -14.39,65.58 -1.692,82.08"
         id="path2"
         style="stroke:#000000;stroke-opacity:1" />
      <path
         d="m 339.6,170 c 18.37,24.13 17.97,63.98 0.6228,81.33 -10.81,10.81 -61.35,60.93 -79.12,79.12 -17.77,18.19 -14.39,65.58 -1.692,82.08"
         id="path3"
         style="stroke:#000000;stroke-opacity:1" />
      <path
         d="m 339.6,252 c 18.37,24.13 17.97,63.98 0.6228,81.33 -10.81,10.81 -61.35,60.93 -79.12,79.12 -17.77,18.19 -14.39,65.58 -1.692,82.08"
         id="path4"
         style="stroke:#000000;stroke-opacity:1" />
      <path
         d="m 339.6,333 c 18.37,24.13 17.97,63.98 0.6228,81.33 -10.81,10.81 -61.35,60.93 -79.12,79.12"
         id="path5"
         style="stroke:#000000;stroke-opacity:1" />
      <path
         d="m 339.6,415 c 18.37,24.13 17.97,63.98 0.6228,81.33"
         id="path6"
         style="stroke:#000000;stroke-opacity:1" />
      <path
         d="m 340.2,6 c -10.81,10.81 -61.35,60.93 -79.12,79.12 -17.77,18.19 -14.39,65.58 -1.692,82.08"
         id="path7"
         style="stroke:#000000;stroke-opacity:1" />
      <path
         d="m 261.1,3 c -17.77,18.19 -14.39,65.58 -1.692,82.08"
         id="path8"
         style="stroke:#000000;stroke-opacity:1" />
    </g>
  </g>
</svg>
