<?xml version="1.0" encoding="UTF-8" standalone="no"?>
<!-- Created with Inkscape (http://www.inkscape.org/) -->

<svg
   width="144.00003mm"
   height="44.54612mm"
   viewBox="0 0 144.00003 44.54612"
   version="1.1"
   id="svg1"
   sodipodi:docname="z-top-horizontal.svg"
   inkscape:version="1.3.2 (091e20ef0f, 2023-11-25, custom)"
   xmlns:inkscape="http://www.inkscape.org/namespaces/inkscape"
   xmlns:sodipodi="http://sodipodi.sourceforge.net/DTD/sodipodi-0.dtd"
   xmlns:xlink="http://www.w3.org/1999/xlink"
   xmlns="http://www.w3.org/2000/svg"
   xmlns:svg="http://www.w3.org/2000/svg">
  <sodipodi:namedview
     id="namedview1"
     pagecolor="#ffffff"
     bordercolor="#000000"
     borderopacity="0.25"
     inkscape:showpageshadow="2"
     inkscape:pageopacity="0.0"
     inkscape:pagecheckerboard="0"
     inkscape:deskcolor="#d1d1d1"
     inkscape:document-units="mm"
     inkscape:zoom="3.3286345"
     inkscape:cx="333.01944"
     inkscape:cy="19.377315"
     inkscape:window-width="3840"
     inkscape:window-height="2121"
     inkscape:window-x="0"
     inkscape:window-y="0"
     inkscape:window-maximized="1"
     inkscape:current-layer="layer1"
     showgrid="false" />
  <defs
     id="defs1" />
  <g
     inkscape:label="Layer 1"
     inkscape:groupmode="layer"
     id="layer1"
     transform="translate(-19.719735,-89.44674)">
    <g
       id="g3"
       transform="rotate(90,91.719745,111.7198)">
      <g
         id="g2">
        <rect
           style="fill:#000000;fill-opacity:1;stroke:none;stroke-width:7.71862"
           id="rect4"
           width="24.092144"
           height="144.00003"
           x="79.719658"
           y="39.71978" />
        <g
           id="g1"
           transform="rotate(90,91.719737,111.7198)">
          <rect
             style="fill:#c95900;fill-opacity:1;stroke:#c95900;stroke-width:4;stroke-linejoin:round;stroke-dasharray:none;stroke-opacity:1"
             id="rect1"
             width="20"
             height="20"
             x="21.719734"
             y="101.71973" />
          <use
             x="0"
             y="0"
             xlink:href="#use12"
             id="use13"
             transform="matrix(-1,0,0,1,142.28795,1.5e-6)" />
          <use
             x="0"
             y="0"
             xlink:href="#rect1"
             id="use1"
             transform="translate(40.000001)" />
          <use
             x="0"
             y="0"
             xlink:href="#use1"
             id="use2"
             transform="translate(40)" />
          <use
             x="0"
             y="0"
             xlink:href="#use2"
             id="use3"
             transform="translate(40)" />
          <path
             id="use7"
             style="color:#000000;fill:#ff0000;stroke-linejoin:round;-inkscape-stroke:none"
             d="m 53.431881,111.44675 c 0.0012,0.0936 0.0072,0.18617 0.0072,0.28008 0,12.03245 -9.722299,21.8414 -21.719605,21.99297 v -4.00027 c 9.833976,-0.14986 17.719332,-8.12207 17.719332,-17.9927 0,-0.094 -0.0058,-0.18646 -0.0072,-0.28008 z" />
          <use
             x="0"
             y="0"
             xlink:href="#use7"
             id="use8"
             transform="rotate(180,51.431744,111.58327)" />
          <path
             id="use11"
             style="color:#000000;fill:#0000ff;stroke-linejoin:round;-inkscape-stroke:none"
             d="m 53.431916,111.7198 c 0.0012,-0.0936 0.0072,-0.18617 0.0072,-0.28008 0,-12.032447 -9.722299,-21.8414 -21.719605,-21.99297 v 4.00027 c 9.833976,0.14986 17.719332,8.12207 17.719332,17.9927 0,0.094 -0.0058,0.18646 -0.0072,0.28008 z" />
          <use
             x="0"
             y="0"
             xlink:href="#use11"
             id="use12"
             transform="rotate(180,51.431744,111.7198)" />
          <use
             x="0"
             y="0"
             xlink:href="#use13"
             id="use14"
             transform="rotate(180,90.856202,111.7198)" />
          <use
             x="0"
             y="0"
             xlink:href="#use9"
             id="use10"
             transform="rotate(180,90.859824,111.57976)" />
          <use
             x="0"
             y="0"
             xlink:href="#use8"
             id="use9"
             transform="matrix(-1,0,0,1,142.28795,0)" />
          <use
             x="0"
             y="0"
             xlink:href="#use16"
             id="use17"
             transform="rotate(180,130.28067,111.58327)" />
          <use
             x="0"
             y="0"
             xlink:href="#use14"
             id="use15"
             transform="matrix(-1,0,0,1,221.13686,0)" />
          <use
             x="0"
             y="0"
             xlink:href="#use10"
             id="use16"
             transform="matrix(-1,0,0,1,221.1441,0.0070275)" />
          <use
             x="0"
             y="0"
             xlink:href="#use15"
             id="use18"
             transform="rotate(180,130.28067,111.58327)" />
        </g>
      </g>
    </g>
  </g>
</svg>
